/* XPM */
static char * c_icon[] = {
/* width height ncolors chars_per_pixel */
"50 40 4 1",
/* colors */
" 	s None	c None",
".	c black",
"X	c #FFF",
"o	c white",
/* pixels */
"                                                  ",
"                                                  ",
"                                                  ",
"                                                  ",
"                                                  ",
"                                                  ",
"                                                  ",
"            ..................                    ",
"            .XXXXXXXXXXXXXXXX..                   ",
"            .XXXXXXXXXXXXXXXX.X.                  ",
"            .XXXXXXXXXXXXXXXX.XX.                 ",
"            .XX............XX.XXX.                ",
"            .XXXXXXXXXXXXXXXX.XXXX.               ",
"            .XX............XX.XXXXX.              ",
"            .XXXXXXXXXXXXXXXX........             ",
"            .XXXXXX......XXXXXXXXXX..             ",
"            .XXXXXXXXXXXXXXXXXXXXXX..             ",
"            .XXXXXX........XXXXXXXX..             ",
"            .XXXXXXXXXXXXXXXXXXXXXX..             ",
"            .XXXXXXXXXX.......XXXXX..             ",
"            .XXXXXXXXXXXXXXXXXXXXXX..             ",
"            .XXXXXXXXXX.........XXX..             ",
"            .XXXXXXXXXXXXXXXXXXXXXX..             ",
"            .XXXXXX.........XXXXXXX..             ",
"            .XXXXXXXXXXXXXXXXXXXXXX..             ",
"            .XXXXXX........XXXXXXXX..             ",
"            .XXXXXXXXXXXXXXX....XXX..             ",
"            .XXXXXXXXXX..X........X..             ",
"            .XXXXXXXXXXXXX...XX...X..             ",
"            .XX.........X...XXXXXXX..             ",
"            .XXXXXXXXXXXX...XXXXXXX..             ",
"            .XXXXXX.....X...XXXXXXX..             ",
"            .XXXXXXXXXXXX...XXXXXXX..             ",
"            .XXXXXX...X..X...XX...X..             ",
"            .XXXXXXXXXX..X........X..             ",
"            .XXXXXXXXXX..XXX....XXX..             ",
"            .XXXXXXXXXXXXXXXXXXXXXX..             ",
"            .........................             ",
"             ........................             ",
"            ooooooooooooooooooooooooo             "};
