/* XPM */
static char * core_icon_xpm[] = {
/* width height ncolors chars_per_pixel */
"50 40 3 1",
/* colors */
" 	s None	c None",
".	c black",
"X	c #FFF",
/* pixels */
"                                                  ",
"                                                  ",
"                                                  ",
"                                                  ",
"                                                  ",
"                                                  ",
"                                                  ",
"            ..................                    ",
"            .XXXXXXXXXXXXXXXX..                   ",
"            .XXXXXXXXXXXXXXXX.X.                  ",
"            .XXXXXXXX.XXXXXXX.XX.                 ",
"            .XXXXX.XX.XX.XXXX.XXX.                ",
"            .XXXXXX.X.X.XXXXX.XXXX.               ",
"            .XXXXXXXXXXXXXXXX.XXXXX.              ",
"            .XXXX...XXX...XXX........             ",
"            .XXXXXXXXXXXXXXXXXXXXXX..             ",
"            .XXXXXX.X.XX.XXXXXXXXXX..             ",
"            .XXXXX.XX.X....XXXXXXXX..             ",
"            .XXXXXXXX.XX...XXXXXXXX..             ",
"            .XXXXXXXXX.....XXXXXXXX..             ",
"            .XXXXXXX.XX.X....XXXXXX..             ",
"            .XXXXXX.X.........XXXXX..             ",
"            .XXXXX.X...........XXXX..             ",
"            .XXXXX.X...........XXXX..             ",
"            .XXXX.X.............XXX..             ",
"            .XXXX...............XXX..             ",
"            .XXXX.X.............XXX..             ",
"            .XXXX...............XXX..             ",
"            .XXXX...............XXX..             ",
"            .XXXXX.............XXXX..             ",
"            .XXXXX.............XXXX..             ",
"            .XXXXXX...........XXXXX..             ",
"            .XXXXXXX.........XXXXXX..             ",
"            .XXXXXXXXX.....XXXXXXXX..             ",
"            .XXXXXXXXXXXXXXXXXXXXXX..             ",
"            .XXXXXXXXXXXXXXXXXXXXXX..             ",
"            .XXXXXXXXXXXXXXXXXXXXXX..             ",
"            .........................             ",
"             ........................             ",
"                                                  "};
