/* XPM */
static char * Dir_network_icon_xpm[] = {
/* width height ncolors chars_per_pixel */
"50 40 3 1",
/* colors */
" 	s None	c None",
".	c black",
"X	c #FFF",
/* pixels */
"                                                  ",
"                                                  ",
"                                                  ",
"                                                  ",
"                                                  ",
"                                                  ",
"                                                  ",
"                                                  ",
"                                                  ",
"                           .......                ",
"                          .XXXXXXX.               ",
"                         .XXXXXXXXX.              ",
"           ...........................            ",
"          .XXXXXXXXXXXXXXXXXXXXXXXXXXX.           ",
"          .XXXXXXXXXXXXXXXXXXXXXXXXXXX..          ",
"          .XXXXXXXXXXXXXXXXXXXXXXXXXXX..          ",
"          .XXXXXXXXXXXXXXXXXXXXXXXXXXX..          ",
"          .XXXXXXXXXXXXXXXXXXXXXXXXXXX..          ",
"          .XXXXXXXXXXXXXXXXXXXXXXXXXXX..          ",
"          .XXXXXXXXXXXXXXXXXXXXXXXXXXX..          ",
"          .XXXXXXXXXXXXXXXXXXXXXXXXXXX..          ",
"          .XXXXXXXXXXXXXXXXXXXXXXXXXXX..          ",
"          .XXXXXXXXXXXXXXXXXXXXXXXXXXX..          ",
"          .XXXXXXXXXXXXXXXXXXXXXXXXXXX..          ",
"          .XXXXXXXXXXXXXXXXXXXXXXXXXXX..          ",
"          .XXXXXXXXXXXXXXXXXXXXXXXXXXX..          ",
"          .XXXXXXXXXXXXXXXXXXXXXXXXXXX..          ",
"          .XXXXXXXXXXXXXXXXXXXXXXXXXXX..          ",
"          .XXXXXXXXXXXXXXXXXXXXXXXXXXX..          ",
"          .XXXXXXXXXXXXXXXXXXXXXXXXXXX..          ",
"          .XXXXXXXXXXXXXXXXXXXXXXXXXXX..          ",
"          .XXXXXX.X.XXXXXXXXXXXXXXXXXX..          ",
"          .XXXXXX.X.XXXXXXXXXXXXXXXXXX..          ",
"          .....X.....X..................          ",
"           ....X.XXX.X..................          ",
"                .....                             ",
"         . .. ..  .  ............... .. .         ",
"                 . .                              ",
"         . .. ...   ................ .. .         ",
"                                                  "};
