/* XPM */
static char * Dir_parent_icon_xpm[] = {
/* width height ncolors chars_per_pixel */
"50 40 4 1",
/* colors */
" 	s None	c None",
".	c white",
"X	c black",
"o	c #FFF",
/* pixels */
"..................................................",
"..................................................",
"..................................................",
"..................................................",
"..................................................",
"..................................................",
"..................................................",
"..................................................",
"..................................................",
"..................................................",
"..................................................",
"..................................................",
"..................................................",
"...........................XXXXXXX................",
"..........................XoooooooX...............",
".........................XoooooooooX..............",
"...........XXXXXXXXXXXXXXXXXXXXXXXXXXX............",
"..........XoooooooooooooooooooooooooooX...........",
"..........XooooooooooooXXXooooooooooooXX..........",
"..........XoooooooooooXXXXXoooooooooooXX..........",
"..........XooooooooooXXXXXXXooooooooooXX..........",
"..........XoooooooooXXXXXXXXXoooooooooXX..........",
"..........XooooooooXXXXXXXXXXXooooooooXX..........",
"..........XoooooooXXXXXXXXXXXXXoooooooXX..........",
"..........XooooooXXXXXXoooXXXXXXooooooXX..........",
"..........XoooooXXXXXXoXXXoXXXXXXoooooXX..........",
"..........XooooXXXXXXoXoooXoXXXXXXooooXX..........",
"..........XoooXXXXXXoXoooooXoXXXXXXoooXX..........",
"..........XooXXXXXXoXoooooooXoXXXXXXooXX..........",
"..........XoXXXXXXoXoooooooooXoXXXXXXoXX..........",
"..........XoooooooXoooooooooooXoooooooXX..........",
"..........XooooooXoooooooooooooXooooooXX..........",
"..........XoooooXoooooooooooooooXoooooXX..........",
"..........XooooXoooooooooooooooooXooooXX..........",
"..........XoooXoooooooooooooooooooXoooXX..........",
"..........XooXXXXXXXXXXXXXXXXXXXXXXXooXX..........",
"..........XoooooooooooooooooooooooooooXX..........",
"..........XXXXXXXXXXXXXXXXXXXXXXXXXXXXXX..........",
".......... XXXXXXXXXXXXXXXXXXXXXXXXXXXXX..........",
".................................................."};
