/* XPM */
static char * Dir_plain_icon_xpm[] = {
/* width height ncolors chars_per_pixel */
"50 40 3 1",
/* colors */
" 	c white",
".	c black",
"X	c #FFF",
/* pixels */
"                                                  ",
"                                                  ",
"                                                  ",
"                                                  ",
"                                                  ",
"                                                  ",
"                                                  ",
"                                                  ",
"                                                  ",
"                                                  ",
"                                                  ",
"                                                  ",
"                                                  ",
"                          .......                 ",
"                         .XXXXXXX.                ",
"                        .XXXXXXXXX.               ",
"          ...........................             ",
"         .XXXXXXXXXXXXXXXXXXXXXXXXXXX.            ",
"         .XXXXXXXXXXXXXXXXXXXXXXXXXXX..           ",
"         .XXXXXXXXXXXXXXXXXXXXXXXXXXX..           ",
"         .XXXXXXXXXXXXXXXXXXXXXXXXXXX..           ",
"         .XXXXXXXXXXXXXXXXXXXXXXXXXXX..           ",
"         .XXXXXXXXXXXXXXXXXXXXXXXXXXX..           ",
"         .XXXXXXXXXXXXXXXXXXXXXXXXXXX..           ",
"         .XXXXXXXXXXXXXXXXXXXXXXXXXXX..           ",
"         .XXXXXXXXXXXXXXXXXXXXXXXXXXX..           ",
"         .XXXXXXXXXXXXXXXXXXXXXXXXXXX..           ",
"         .XXXXXXXXXXXXXXXXXXXXXXXXXXX..           ",
"         .XXXXXXXXXXXXXXXXXXXXXXXXXXX..           ",
"         .XXXXXXXXXXXXXXXXXXXXXXXXXXX..           ",
"         .XXXXXXXXXXXXXXXXXXXXXXXXXXX..           ",
"         .XXXXXXXXXXXXXXXXXXXXXXXXXXX..           ",
"         .XXXXXXXXXXXXXXXXXXXXXXXXXXX..           ",
"         .XXXXXXXXXXXXXXXXXXXXXXXXXXX..           ",
"         .XXXXXXXXXXXXXXXXXXXXXXXXXXX..           ",
"         .XXXXXXXXXXXXXXXXXXXXXXXXXXX..           ",
"         .XXXXXXXXXXXXXXXXXXXXXXXXXXX..           ",
"         ..............................           ",
"          .............................           ",
"                                                  "};
