/* XPM */
static char * Exe_batch_icon_xpm[] = {
/* width height ncolors chars_per_pixel */
"50 40 3 1",
/* colors */
" 	c white",
".	c black",
"X	c #FFF",
/* pixels */
"                                                  ",
"                                                  ",
"                                                  ",
"                                                  ",
"                                                  ",
"                                                  ",
"                                                  ",
"         ...............................          ",
"         .XXXXXXXXXXXXXXXXXXXXXXXXXXXXX..         ",
"         .XXX....XXXXXXXXXXXXXXXXXXXXXX..         ",
"         .XXX.XX.XXXXXXXXXXXXXXXXXXXXXX..         ",
"         .XXX.XX.XXXXXXXXXXXXXXXXXXXXXX..         ",
"         .XXX....XXXXXXXXXXXXXXXXXXXXXX..         ",
"         .XXXXXXXXXXXXXXXXXXXXXXXXXXXXX..         ",
"         ................................         ",
"         .XXXXXXXXXXXXXXXXXXXXXXXXXXXXX..         ",
"         .XXXXXXXXXXXXXXXXXXXXXXXXXXXXX..         ",
"         .XXXXXXXXXXXXXXXXXXXXXXXXXXXXX..         ",
"         .XXXXXXXXXXXXXXXXXXXXXXXXXXXXX..         ",
"         .XXXXXXXXX..............XXXXXX..         ",
"         .XXXXXXXX.XXXXXXXXXXXXXX.XXXXX..         ",
"         .XXXXXXXX..............XX.XXXX..         ",
"         .XXXXXXX.XXXXXXXXXXXXXX.X.XXXX..         ",
"         .XXXXXXX..............XX..XXXX..         ",
"         .XXXXXX.XXXXXXXXXXXXXX.X..XXXX..         ",
"         .XXXXXX..............XX...XXXX..         ",
"         .XXXXX.XXXXXXXXXXXXXX.X...XXXX..         ",
"         .XXXXX.XXXXXXXXXXXXXXX....XXXX..         ",
"         .XXXXX.XXXXXXXXXXXXXXX...XXXXX..         ",
"         .XXXXX.XXXXXXXXXXXXXXX...XXXXX..         ",
"         .XXXXX.XXXXXXXXXXXXXXX..XXXXXX..         ",
"         .XXXXX.XXXXXXXXXXXXXXX..XXXXXX..         ",
"         .XXXXX.XXXXXXXXXXXXXXX.XXXXXXX..         ",
"         .XXXXXX................XXXXXXX..         ",
"         .XXXXXXXXXXXXXXXXXXXXXXXXXXXXX..         ",
"         .XXXXXXXXXXXXXXXXXXXXXXXXXXXXX..         ",
"         .XXXXXXXXXXXXXXXXXXXXXXXXXXXXX..         ",
"         ................................         ",
"          ...............................         ",
"                                                  "};
