/* XPM */
static char * gif_icon_xpm[] = {
/* width height ncolors chars_per_pixel */
"50 40 3 1",
/* colors */
" 	s None	c None",
".	c black",
"X	c #FFF",
/* pixels */
"                                                  ",
"                                                  ",
"                                                  ",
"                                                  ",
"                                                  ",
"                                                  ",
"                                                  ",
"            ..................                    ",
"            .XXXXXXXXXXXXXXXX..                   ",
"            .XXXXXXXXXXXXXXXX.X.                  ",
"            .XXXX...XX.X....X.XX.                 ",
"            .XXX.XXX.X.X.XXXX.XXX.                ",
"            .XXX.XXXXX.X...XX.XXXX.               ",
"            .XXX.XX..X.X.XXXX.XXXXX.              ",
"            .XXX.XXX.X.X.XXXX........             ",
"            .XXXX...XX.X.XXXXXXXXXX..             ",
"            .XXXXXXXXXXXXXXXXXXXXXX..             ",
"            .XXXXXXXXXXXXXXXXXXXXXX..             ",
"            .XXXXXXXXXXXXXXXX..XXXX..             ",
"            .XX.XXXXXXXXXXXX.X.XXXX..             ",
"            .X.X.XXXX.XXXXX..XX.XXX..             ",
"            ..XXX.XX.X.XXX.XXXXX.XX..             ",
"            .XXXXX..XXX.X.XXXXXX.XX..             ",
"            .XXXXXXXXXXX.XXXX...X.X..             ",
"            .XXXXXXXXXXXXXX...X..X...             ",
"            .XXXXXXXXXXXXX..X..X.XX..             ",
"            .XXXXXXXXXXXXX.X......X..             ",
"            .XXXXXXX.XXXX....X..X.X..             ",
"            .XXXXXX.X.XXX.........X..             ",
"            .XXXXX.XXX.XXX..X.....X..             ",
"            .XXXX.XXXXX.XXX.X...X.X..             ",
"            .XXX..XXXXX..XXXX.X.XXX..             ",
"            .XX.X.X...X.X.XXX.X.XXX..             ",
"            .XXXX.X.X.X.XXXXX...XXX..             ",
"            .XXXX.X.X.X.XXXXX...XXX..             ",
"            .XXXX.......XXXXX...XXX..             ",
"            .XXXXXXXXXXXXXXXXXXXXXX..             ",
"            .........................             ",
"             ........................             ",
"                                                  "};
