/* XPM */
static char * h_icon_xpm[] = {
/* width height ncolors chars_per_pixel */
"50 40 3 1",
/* colors */
" 	s None	c None",
".	c black",
"X	c #FFF",
/* pixels */
"                                                  ",
"                                                  ",
"                                                  ",
"                                                  ",
"                                                  ",
"                                                  ",
"                                                  ",
"            ..................                    ",
"            .XXXXXXXXXXXXXXXX..                   ",
"            .XXXXXXXXXXXXXXXX.X.                  ",
"            .XXXXXXXXXXXXXXXX.XX.                 ",
"            .XX............XX.XXX.                ",
"            .XXXXXXXXXXXXXXXX.XXXX.               ",
"            .XX............XX.XXXXX.              ",
"            .XXXXXXXXXXXXXXXX........             ",
"            .XXXXX.......XXXXXXXXXX..             ",
"            .XXXXXXXXXXXXXXXXXXXXXX..             ",
"            .XXXXX..............XXX..             ",
"            .XXXXXXXXXXXXXXXXXXXXXX..             ",
"            .XXXXX....XXXXXXXXXXXXX..             ",
"            .XXXXXXXXXXXXXXXXXXXXXX..             ",
"            .XXXXX......XXXXXXXXXXX..             ",
"            .XXXXXXXXXXXXXXXXXXXXXX..             ",
"            .XXXXX....XXX...XXXXXXX..             ",
"            .XXXXXXXXXXXX...XXXXXXX..             ",
"            .XXXXX......X...XXXXXXX..             ",
"            .XXXXXXXXXXXX.......XXX..             ",
"            .XXXXX......X........XX..             ",
"            .XXXXXXXXXXXX....X....X..             ",
"            .XX.........X...XXX...X..             ",
"            .XXXXXXXXXXXX...XXX...X..             ",
"            .XX.........X...X.X...X..             ",
"            .XXXXXXXXXXXX...XXX...X..             ",
"            .XXXXX...X..X...XXX...X..             ",
"            .XXXXXXXXX..X...XXX...X..             ",
"            .XXXXXXXXX..X...XXX...X..             ",
"            .XXXXXXXXXXXXXXXXXXXXXX..             ",
"            .........................             ",
"             ........................             ",
"                                                  "};
