/* XPM */
static char * makefile_icon_xpm[] = {
/* width height ncolors chars_per_pixel */
"50 40 3 1",
/* colors */
" 	s None	c None",
".	c black",
"X	c #FFF",
/* pixels */
"                                                  ",
"                                                  ",
"                                                  ",
"                                                  ",
"                                                  ",
"                                                  ",
"                                                  ",
"            ..................                    ",
"            .XXXXXXXXXXXXXXXX..                   ",
"            .XXXXXX...XXXXXXX.X.                  ",
"            .XXXX...X...XXXXX.XX.                 ",
"            .XXXX.XX.XX.XXXXX.XXX.                ",
"            .XXX..X...X..XXXX.XXXX.               ",
"            .XXX.XX.XXXX.XXXX.XXXXX.              ",
"            .XXX..XX.XX..XXXX........             ",
"            .XXXX.XXXXX....XXXXXXXX..             ",
"            .XXXX...X....X.XX.XXXXX..             ",
"            .XXXXXX...X.XXX..X.XXXX..             ",
"            .XXXXXX.XXXXXXXXXX..XXX..             ",
"            .XXXXXXX.XXX...XXX.XXXX..             ",
"            .XXXXXXX.XX.X.X.XX.XXXX..             ",
"            .XXXXX..XX.X.XXX.XX..XX..             ",
"            .XXXXX.XXX..XXXX.XXX.XX..             ",
"            .XXXXX...X.X.XXX.X...XX..             ",
"            .XXXXXXX.XX.X.X.XX.XXXX..             ",
"            .XXXXXXX.XXX...XXX.XXXX..             ",
"            .XXXXXX.XXXXXXXXXXX.XXX..             ",
"            .XXXXXX..X..XX.....XXXX..             ",
"            .XXXX...X...XX.XX.XXXXX..             ",
"            .XXXX.XX.XX....XXXXXXXX..             ",
"            .XXX..X...X..XXXXXXXXXX..             ",
"            .XXX.XX.XXXX.XXXXXXXXXX..             ",
"            .XXX..XX.XX..XXXXXXXXXX..             ",
"            .XXXX.XXXXX.XXXXXXXXXXX..             ",
"            .XXXX...X...XXXXXXXXXXX..             ",
"            .XXXXXX...XXXXXXXXXXXXX..             ",
"            .XXXXXXXXXXXXXXXXXXXXXX..             ",
"            .........................             ",
"             ........................             ",
"                                                  "};
