/* XPM */
static char * man_icon_xpm[] = {
/* width height ncolors chars_per_pixel */
"50 40 3 1",
/* colors */
" 	s None	c None",
".	c black",
"X	c #FFF",
/* pixels */
"                                                  ",
"                                                  ",
"                                                  ",
"                                                  ",
"                                                  ",
"                                                  ",
"                                                  ",
"            ...................                   ",
"            .XXXXXXXXXXXXXXXXX..                  ",
"            .XXXXXXXXXXXXXXXXX.X.                 ",
"            .X...XXXXXX...XXXX.XX.                ",
"            .XXXXXXXXXXXXXXXXX.XXX.               ",
"            .XX.....XXXXXXXXXX.XXXX.              ",
"            .XXXXXXXXXXXXXXXXX.......             ",
"            .XXXX..X...X.....XXXXXX..             ",
"            .XXXXXXXXXXXXXXXXXXXXXX..             ",
"            .XX....XXXXXXXXXXXXXXXX..             ",
"            .XXXXXXXXXXXXXXXXXXXXXX..             ",
"            .XXXX...X.X...X..X...XX..             ",
"            .XXXX.X..X..X..X.X...XX..             ",
"            .XXXX.....X.X..X..X.XXX..             ",
"            .XXXX..X..X..X.X..X..XX..             ",
"            .XXXX.....X.X..X..X..XX..             ",
"            .XXXXXXXXXXXXXXXXXXXXXX..             ",
"            .XX.....XXXXXXXXXXXXXXX..             ",
"            .XXXXXXXXXXXXXXXXXXXXXX..             ",
"            .XXXX..X...X...X...X.XX..             ",
"            .XXXX.X..X...X.......XX..             ",
"            .XXXX...X..X...X..X..XX..             ",
"            .XXXX..X...X.........XX..             ",
"            .XXXX..X..X...X..X..XXX..             ",
"            .XXXX...X....X...X...XX..             ",
"            .XXXX.X...X..X...X...XX..             ",
"            .XXXX...X...X..X..X.XXX..             ",
"            .XXXX..X.....X..X....XX..             ",
"            .XXXXXXXXXXXXXXXXXXXXXX..             ",
"            .XXXXXXXXXXXXXXXXXXXXXX..             ",
"            .........................             ",
"             ........................             ",
"                                                  "};
