/* XPM */
static char * o_icon_xpm[] = {
/* width height ncolors chars_per_pixel */
"50 40 3 1",
/* colors */
" 	s None	c None",
".	c black",
"X	c #FFF",
/* pixels */
"                                                  ",
"                                                  ",
"                                                  ",
"                                                  ",
"                                                  ",
"                                                  ",
"                                                  ",
"            ..................                    ",
"            .XXXXXXXXXXXXXXXX..                   ",
"            .XXXXXXXXXXXXXXXX.X.                  ",
"            .XXXXXXXXXXXXXXXX.XX.                 ",
"            .XX.............X.XXX.                ",
"            .XX.X.X.X.X.X.X.X.XXXX.               ",
"            .XX.............X.XXXXX.              ",
"            .XX.X.X.X.X.X.X.X........             ",
"            .XX.............XXXXXXX..             ",
"            .XX.X.X.X.X.X.X.XXXXXXX..             ",
"            .XX...................X..             ",
"            .XX.X.X.X.X.X.X.X.X.X.X..             ",
"            .XX...................X..             ",
"            .XX.X.X.X.X.X.X.X.X.X.X..             ",
"            .XX...................X..             ",
"            .XX.X.X.X.X.X.X.X.X.X.X..             ",
"            .XX...................X..             ",
"            .XX.X.X.X.X.X.X.X.X.X.X..             ",
"            .XX...........XXXXXX..X..             ",
"            .XX.X.X.X.X.XXX....XX.X..             ",
"            .XX.........X........XX..             ",
"            .XX.X.X.X.XXX...XX...XX..             ",
"            .XX........X...XXXX...X..             ",
"            .XX.X.X.X.XX...XXXX...X..             ",
"            .XX........X...XXXX...X..             ",
"            .XX.X.X.X.XX...XXXX...X..             ",
"            .XX.........X...XX...XX..             ",
"            .XXXXXXXXX..X........XX..             ",
"            .XXXXXXXXX..XXX....XXXX..             ",
"            .XXXXXXXXXXXXXXXXXXXXXX..             ",
"            .........................             ",
"             ........................             ",
"                                                  "};
