/* XPM */
static char * s_icon_xpm[] = {
/* width height ncolors chars_per_pixel */
"50 40 3 1",
/* colors */
" 	s None	c None",
".	c black",
"X	c #FFF",
/* pixels */
"                                                  ",
"                                                  ",
"                                                  ",
"                                                  ",
"                                                  ",
"                                                  ",
"                                                  ",
"            ..................                    ",
"            .XXXXXXXXXXXXXXXX..                   ",
"            .XXXXXXXXXXXXXXXX.X.                  ",
"            .XXXXXXXXXXXXXXXX.XX.                 ",
"            .XX...XX.......XX.XXX.                ",
"            .XXXXXXXXXXXXXXXX.XXXX.               ",
"            .XX...XX.....XXXX.XXXXX.              ",
"            .XXXXXXXXXXXXXXXX........             ",
"            .XX...XX.......XXXXXXXX..             ",
"            .XXXXXXXXXXXXXXXXXXXXXX..             ",
"            .XXXXXXXXXXXXXXXXXXXXXX..             ",
"            .XXXXXXXXXXXXXXXXXXXXXX..             ",
"            .XX...XX.......XXXXXXXX..             ",
"            .XXXXXXXXXXXXXXXXXXXXXX..             ",
"            .XX...XX...........XXXX..             ",
"            .XXXXXXXXXXXXXXXXXXXXXX..             ",
"            .XX...XX........XXXXXXX..             ",
"            .XXXXXXXXXXXXXXXXXXXXXX..             ",
"            .XXXXXXXXXXXXXXXXXXXXXX..             ",
"            .XXXXXXXXXXXXXX.....XXX..             ",
"            .XX...XX.....X........X..             ",
"            .XXXXXXXXXXXXX...XX...X..             ",
"            .XX...XX...XXX.....XXXX..             ",
"            .XXXXXXXXXXXXXX......XX..             ",
"            .XX...XX....XXXXX.....X..             ",
"            .XXXXXXXXXXXXXXXXXX...X..             ",
"            .XX...XX..X..X...XX...X..             ",
"            .XXXXXXXXXX..X.......XX..             ",
"            .XXXXXXXXXX..XXX....XXX..             ",
"            .XXXXXXXXXXXXXXXXXXXXXX..             ",
"            .........................             ",
"             ........................             ",
"                                                  "};
