/* XPM */
static char * tar_icon_xpm[] = {
/* width height ncolors chars_per_pixel */
"50 40 3 1",
/* colors */
" 	s None	c None",
".	c black",
"X	c #FFF",
/* pixels */
"                                                  ",
"                                                  ",
"                                                  ",
"                                                  ",
"                                                  ",
"                                                  ",
"                                                  ",
"            ..................                    ",
"            .XXXXXXXXXXXXXXXX..                   ",
"            .XXXXXXXXXXXXXXXX.X.                  ",
"            .X.....X..XX...XX.XX.                 ",
"            .XXX.XX.XX.X.XX.X.XXX.                ",
"            .XXX.XX.XX.X.XX.X.XXXX.               ",
"            .XXX.XX....X...XX.XXXXX.              ",
"            .XXX.XX.XX.X.X.XX........             ",
"            .XXX.XX.XX.X.XX.XXXXXXX..             ",
"            .XXXXXXXXXXXXXXXXXXXXXX..             ",
"            .XXXXXXXXXXXXXXXXXXXXXX..             ",
"            .X....................X..             ",
"            .X.XXXXXXXXXXXXXXXXXX.X..             ",
"            .X.XXXXXX........XXXX.X..             ",
"            .X.XXXXX.XXXXXXXX.XXX.X..             ",
"            .X.XXXX.XXXXXXXXX.XXX.X..             ",
"            .X.XXXX.XXXXXXXXXX.XX.X..             ",
"            .X.XXX.XXXXXXXXXXX.XX.X..             ",
"            .X.XXX.XXXXXX.....X.X.X..             ",
"            .X.XX.XXXXXX........X.X..             ",
"            .X.XX.XXXXX.........X.X..             ",
"            .X.X....XXX.........X.X..             ",
"            .X.X.....XX....X....X.X..             ",
"            .X.X..X..XX.........X.X..             ",
"            .X.X.....XX.........X.X..             ",
"            .X.XX...XXXX.......XX.X..             ",
"            .X.XXXXXXXXXX.....XXX.X..             ",
"            .X.XXXXXXXXXXXXXXXXXX.X..             ",
"            .X....................X..             ",
"            .XXXXXXXXXXXXXXXXXXXXXX..             ",
"            .........................             ",
"             ........................             ",
"                                                  "};
