/* XPM */
static char * xpm_icon_xpm[] = {
/* width height ncolors chars_per_pixel */
"50 40 3 1",
/* colors */
" 	s None	c None",
".	c black",
"X	c #FFF",
/* pixels */
"                                                  ",
"                                                  ",
"                                                  ",
"                                                  ",
"                                                  ",
"                                                  ",
"                                                  ",
"            ..................                    ",
"            .XXXXXXXXXXXXXXXX..                   ",
"            .XXXX...XXX..XXXX.X.                  ",
"            .XXXX...XXX.XXXXX.XX.                 ",
"            .XXXXX...X..XXXXX.XXX.                ",
"            .XXXXX...X.XXXXXX.XXXX.               ",
"            .XXXXXX.X...XXXXX.XXXXX.              ",
"            .XXXXX..X...XXXXX........             ",
"            .XXXXX.XXX...XXXXXXXXXX..             ",
"            .XXXX..XXX...XXXXXXXXXX..             ",
"            .XXXXXXXXXXXXXXXXXXXXXX..             ",
"            .XXXX................XX..             ",
"            .XXXX....XX....XX....XX..             ",
"            .XXXX....XX....XX....XX..             ",
"            .XXXX................XX..             ",
"            .XXXX.XX.XX....XX.XX.XX..             ",
"            .XXXX.XX.XX....XX.XX.XX..             ",
"            .XXXX................XX..             ",
"            .XXXX.XX....XX....XX.XX..             ",
"            .XXXX.XX....XX....XX.XX..             ",
"            .XXXX................XX..             ",
"            .XXXX....XX.XX....XX.XX..             ",
"            .XXXX....XX.XX....XX.XX..             ",
"            .XXXX................XX..             ",
"            .XXXX.XX.......XX....XX..             ",
"            .XXXX.XX.......XX....XX..             ",
"            .XXXX................XX..             ",
"            .XXXXXXXXXXXXXXXXXXXXXX..             ",
"            .XXXXXXXXXXXXXXXXXXXXXX..             ",
"            .XXXXXXXXXXXXXXXXXXXXXX..             ",
"            .........................             ",
"             ........................             ",
"                                                  "};
