/* XPM */
static char * lock_status_xpm[] = {
/* width height ncolors chars_per_pixel */
"50 40 2 1",
/* colors */
" 	s None	c None",
".	c black",
/* pixels */
"                                                  ",
"                                                  ",
"                                                  ",
"                                                  ",
"                                                  ",
"                                                  ",
"                                                  ",
"                                                  ",
"                                                  ",
"                                                  ",
"                                                  ",
"                                                  ",
"                                                  ",
"                                                  ",
"                                                  ",
"                                                  ",
"                                                  ",
"             . .               . .                ",
"            .   .             .   .               ",
"             . .               . .                ",
"              . . .         . . .                 ",
"                 . .       . .                    ",
"                .   .     .   .                   ",
"                 . .       . .                    ",
"                  . .     . .                     ",
"                     .....                        ",
"                     .. ..                        ",
"                     .   .                        ",
"                     .   .                        ",
"                    .......                       ",
"                    .......                       ",
"                    .......                       ",
"                    ... ...                       ",
"                    ... ...                       ",
"                    ..   ..                       ",
"                    .......                       ",
"                                                  ",
"                                                  ",
"                                                  ",
"                                                  "};
